<svg xmlns="http://www.w3.org/2000/svg" viewBox="0 0 375 250"><defs><g/><clipPath id="4117b9ac57"><path d="M 137.671875 15.152344 L 184.109375 15.152344 L 184.109375 61.585938 L 137.671875 61.585938 Z M 137.671875 15.152344 " clip-rule="nonzero"/></clipPath><clipPath id="e5f5303c92"><path d="M 191.074219 11.421875 L 237 11.421875 L 237 38 L 191.074219 38 Z M 191.074219 11.421875 " clip-rule="nonzero"/></clipPath><clipPath id="f7b058c3fc"><path d="M 191.074219 94.144531 L 237.511719 94.144531 L 237.511719 140.578125 L 191.074219 140.578125 Z M 191.074219 94.144531 " clip-rule="nonzero"/></clipPath><clipPath id="f301342164"><path d="M 191.074219 45.246094 L 255.527344 45.246094 L 255.527344 87.269531 L 191.074219 87.269531 Z M 191.074219 45.246094 " clip-rule="nonzero"/></clipPath><clipPath id="b86fea88a1"><path d="M 119.472656 68.777344 L 184.109375 68.777344 L 184.109375 133.410156 L 119.472656 133.410156 Z M 119.472656 68.777344 " clip-rule="nonzero"/></clipPath></defs><g clip-path="url(#4117b9ac57)"><path fill="#652a63" d="M 137.671875 15.152344 L 184.109375 15.152344 L 184.109375 61.585938 L 137.671875 61.585938 Z M 137.671875 15.152344 " fill-opacity="1" fill-rule="nonzero"/></g><g clip-path="url(#e5f5303c92)"><path fill="#652a63" d="M 191.074219 11.421875 L 236.984375 11.421875 L 236.984375 38 L 191.074219 38 Z M 191.074219 11.421875 " fill-opacity="1" fill-rule="nonzero"/></g><g clip-path="url(#f7b058c3fc)"><path fill="#652a63" d="M 191.074219 94.144531 L 237.511719 94.144531 L 237.511719 140.578125 L 191.074219 140.578125 Z M 191.074219 94.144531 " fill-opacity="1" fill-rule="nonzero"/></g><g clip-path="url(#f301342164)"><path fill="#39623d" d="M 191.074219 45.246094 L 255.105469 45.246094 L 255.105469 87.527344 L 191.074219 87.527344 Z M 191.074219 45.246094 " fill-opacity="1" fill-rule="nonzero"/></g><g clip-path="url(#b86fea88a1)"><path fill="#39623d" d="M 119.472656 68.777344 L 184.109375 68.777344 L 184.109375 133.410156 L 119.472656 133.410156 Z M 119.472656 68.777344 " fill-opacity="1" fill-rule="nonzero"/></g><g fill="#652a63" fill-opacity="1"><g transform="translate(20.253803, 215.128051)"><g><path d="M 60.40625 -47.140625 L 60.203125 -47.1875 L 41.15625 0 L 35.859375 0 L 16.828125 -47.140625 L 16.625 -47.109375 L 17.421875 -23.296875 L 17.421875 -6.234375 L 24.015625 -5.09375 L 24.015625 0 L 2.875 0 L 2.875 -5.09375 L 9.46875 -6.234375 L 9.46875 -52.609375 L 2.875 -53.734375 L 2.875 -58.875 L 19.65625 -58.875 L 38.40625 -11.03125 L 38.65625 -11.03125 L 57.375 -58.875 L 74.203125 -58.875 L 74.203125 -53.734375 L 67.609375 -52.609375 L 67.609375 -6.234375 L 74.203125 -5.09375 L 74.203125 0 L 53.046875 0 L 53.046875 -5.09375 L 59.640625 -6.234375 L 59.640625 -23.296875 Z M 60.40625 -47.140625 "/></g></g></g><g fill="#652a63" fill-opacity="1"><g transform="translate(95.620489, 215.128051)"><g><path d="M 22.4375 -53.734375 L 16.09375 -52.96875 L 28.421875 -28.953125 L 40.765625 -52.96875 L 34.453125 -53.734375 L 34.453125 -58.875 L 54.671875 -58.875 L 54.671875 -53.734375 L 49.703125 -52.96875 L 32.234375 -20.703125 L 32.234375 -6.234375 L 38.8125 -5.09375 L 38.8125 0 L 17.703125 0 L 17.703125 -5.09375 L 24.296875 -6.234375 L 24.296875 -21.3125 L 7.15625 -52.96875 L 2.21875 -53.734375 L 2.21875 -58.875 L 22.4375 -58.875 Z M 22.4375 -53.734375 "/></g></g></g><g fill="#652a63" fill-opacity="1"><g transform="translate(151.215941, 215.128051)"><g><path d="M 50.421875 -58.875 L 50.421875 -45.859375 L 43.625 -45.859375 L 43.03125 -52.609375 L 29.96875 -52.609375 L 29.96875 -6.234375 L 36.546875 -5.09375 L 36.546875 0 L 15.40625 0 L 15.40625 -5.09375 L 22 -6.234375 L 22 -52.609375 L 8.890625 -52.609375 L 8.328125 -45.859375 L 1.5 -45.859375 L 1.5 -58.875 Z M 50.421875 -58.875 "/></g></g></g><g fill="#652a63" fill-opacity="1"><g transform="translate(201.474372, 215.128051)"><g><path d="M 2.828125 -53.734375 L 2.828125 -58.875 L 23.984375 -58.875 L 23.984375 -53.734375 L 17.390625 -52.609375 L 17.390625 -6.234375 L 23.984375 -5.09375 L 23.984375 0 L 2.828125 0 L 2.828125 -5.09375 L 9.421875 -6.234375 L 9.421875 -52.609375 Z M 2.828125 -53.734375 "/></g></g></g><g fill="#652a63" fill-opacity="1"><g transform="translate(226.584104, 215.128051)"><g><path d="M 60.40625 -47.140625 L 60.203125 -47.1875 L 41.15625 0 L 35.859375 0 L 16.828125 -47.140625 L 16.625 -47.109375 L 17.421875 -23.296875 L 17.421875 -6.234375 L 24.015625 -5.09375 L 24.015625 0 L 2.875 0 L 2.875 -5.09375 L 9.46875 -6.234375 L 9.46875 -52.609375 L 2.875 -53.734375 L 2.875 -58.875 L 19.65625 -58.875 L 38.40625 -11.03125 L 38.65625 -11.03125 L 57.375 -58.875 L 74.203125 -58.875 L 74.203125 -53.734375 L 67.609375 -52.609375 L 67.609375 -6.234375 L 74.203125 -5.09375 L 74.203125 0 L 53.046875 0 L 53.046875 -5.09375 L 59.640625 -6.234375 L 59.640625 -23.296875 Z M 60.40625 -47.140625 "/></g></g></g><g fill="#652a63" fill-opacity="1"><g transform="translate(301.950791, 215.128051)"><g><path d="M 2.875 0 L 2.875 -5.09375 L 9.46875 -6.234375 L 9.46875 -52.609375 L 2.875 -53.734375 L 2.875 -58.875 L 48.078125 -58.875 L 48.078125 -44.71875 L 41.25 -44.71875 L 40.59375 -52.609375 L 17.421875 -52.609375 L 17.421875 -33.5625 L 39.953125 -33.5625 L 39.953125 -27.296875 L 17.421875 -27.296875 L 17.421875 -6.234375 L 41.078125 -6.234375 L 41.734375 -14.109375 L 48.515625 -14.109375 L 48.515625 0 Z M 2.875 0 "/></g></g></g><g fill="#39623d" fill-opacity="1"><g transform="translate(22.282457, 244.435254)"><g><path d="M 15.234375 0 L 12.8125 0 L 6.359375 -8.59375 L 4.5 -6.953125 L 4.5 0 L 2.4375 0 L 2.4375 -17.71875 L 4.5 -17.71875 L 4.5 -8.9375 L 12.53125 -17.71875 L 14.96875 -17.71875 L 7.84375 -10.03125 Z M 15.234375 0 "/></g></g></g><g fill="#39623d" fill-opacity="1"><g transform="translate(42.729988, 244.435254)"><g><path d="M 12.3125 0 L 2.4375 0 L 2.4375 -17.71875 L 12.3125 -17.71875 L 12.3125 -15.890625 L 4.5 -15.890625 L 4.5 -10.1875 L 11.84375 -10.1875 L 11.84375 -8.359375 L 4.5 -8.359375 L 4.5 -1.84375 L 12.3125 -1.84375 Z M 12.3125 0 "/></g></g></g><g fill="#39623d" fill-opacity="1"><g transform="translate(61.747442, 244.435254)"><g><path d="M 12.3125 0 L 2.4375 0 L 2.4375 -17.71875 L 12.3125 -17.71875 L 12.3125 -15.890625 L 4.5 -15.890625 L 4.5 -10.1875 L 11.84375 -10.1875 L 11.84375 -8.359375 L 4.5 -8.359375 L 4.5 -1.84375 L 12.3125 -1.84375 Z M 12.3125 0 "/></g></g></g><g fill="#39623d" fill-opacity="1"><g transform="translate(80.764897, 244.435254)"><g><path d="M 13.671875 -12.5625 C 13.671875 -10.769531 13.054688 -9.390625 11.828125 -8.421875 C 10.609375 -7.453125 8.859375 -6.96875 6.578125 -6.96875 L 4.5 -6.96875 L 4.5 0 L 2.4375 0 L 2.4375 -17.71875 L 7.03125 -17.71875 C 11.457031 -17.71875 13.671875 -16 13.671875 -12.5625 Z M 4.5 -8.734375 L 6.359375 -8.734375 C 8.179688 -8.734375 9.5 -9.03125 10.3125 -9.625 C 11.132812 -10.21875 11.546875 -11.164062 11.546875 -12.46875 C 11.546875 -13.632812 11.160156 -14.503906 10.390625 -15.078125 C 9.617188 -15.648438 8.421875 -15.9375 6.796875 -15.9375 L 4.5 -15.9375 Z M 4.5 -8.734375 "/></g></g></g><g fill="#39623d" fill-opacity="1"><g transform="translate(100.921564, 244.435254)"><g/></g></g><g fill="#39623d" fill-opacity="1"><g transform="translate(112.582606, 244.435254)"><g><path d="M 7.890625 0 L 5.828125 0 L 5.828125 -15.890625 L 0.21875 -15.890625 L 0.21875 -17.71875 L 13.5 -17.71875 L 13.5 -15.890625 L 7.890625 -15.890625 Z M 7.890625 0 "/></g></g></g><g fill="#39623d" fill-opacity="1"><g transform="translate(131.527349, 244.435254)"><g><path d="M 4.5 -7.375 L 4.5 0 L 2.4375 0 L 2.4375 -17.71875 L 7.296875 -17.71875 C 9.472656 -17.71875 11.078125 -17.300781 12.109375 -16.46875 C 13.148438 -15.644531 13.671875 -14.394531 13.671875 -12.71875 C 13.671875 -10.375 12.484375 -8.789062 10.109375 -7.96875 L 14.921875 0 L 12.484375 0 L 8.1875 -7.375 Z M 4.5 -9.140625 L 7.328125 -9.140625 C 8.773438 -9.140625 9.835938 -9.425781 10.515625 -10 C 11.203125 -10.582031 11.546875 -11.453125 11.546875 -12.609375 C 11.546875 -13.773438 11.195312 -14.617188 10.5 -15.140625 C 9.8125 -15.660156 8.703125 -15.921875 7.171875 -15.921875 L 4.5 -15.921875 Z M 4.5 -9.140625 "/></g></g></g><g fill="#39623d" fill-opacity="1"><g transform="translate(152.083958, 244.435254)"><g><path d="M 13.578125 0 L 11.375 -5.640625 L 4.265625 -5.640625 L 2.078125 0 L 0 0 L 7 -17.796875 L 8.734375 -17.796875 L 15.71875 0 Z M 10.734375 -7.484375 L 8.671875 -12.984375 C 8.398438 -13.679688 8.125 -14.535156 7.84375 -15.546875 C 7.664062 -14.765625 7.410156 -13.910156 7.078125 -12.984375 L 5 -7.484375 Z M 10.734375 -7.484375 "/></g></g></g><g fill="#39623d" fill-opacity="1"><g transform="translate(173.004145, 244.435254)"><g><path d="M 10.03125 -16.140625 C 8.082031 -16.140625 6.539062 -15.488281 5.40625 -14.1875 C 4.28125 -12.894531 3.71875 -11.117188 3.71875 -8.859375 C 3.71875 -6.535156 4.257812 -4.742188 5.34375 -3.484375 C 6.4375 -2.222656 7.988281 -1.59375 10 -1.59375 C 11.238281 -1.59375 12.648438 -1.8125 14.234375 -2.25 L 14.234375 -0.453125 C 13.003906 0.015625 11.488281 0.25 9.6875 0.25 C 7.070312 0.25 5.054688 -0.539062 3.640625 -2.125 C 2.222656 -3.71875 1.515625 -5.972656 1.515625 -8.890625 C 1.515625 -10.710938 1.851562 -12.3125 2.53125 -13.6875 C 3.21875 -15.0625 4.207031 -16.117188 5.5 -16.859375 C 6.789062 -17.609375 8.304688 -17.984375 10.046875 -17.984375 C 11.910156 -17.984375 13.535156 -17.640625 14.921875 -16.953125 L 14.046875 -15.1875 C 12.703125 -15.820312 11.363281 -16.140625 10.03125 -16.140625 Z M 10.03125 -16.140625 "/></g></g></g><g fill="#39623d" fill-opacity="1"><g transform="translate(193.875855, 244.435254)"><g><path d="M 15.234375 0 L 12.8125 0 L 6.359375 -8.59375 L 4.5 -6.953125 L 4.5 0 L 2.4375 0 L 2.4375 -17.71875 L 4.5 -17.71875 L 4.5 -8.9375 L 12.53125 -17.71875 L 14.96875 -17.71875 L 7.84375 -10.03125 Z M 15.234375 0 "/></g></g></g><g fill="#39623d" fill-opacity="1"><g transform="translate(214.323391, 244.435254)"><g/></g></g><g fill="#39623d" fill-opacity="1"><g transform="translate(225.984439, 244.435254)"><g><path d="M 17.828125 -8.890625 C 17.828125 -6.046875 17.109375 -3.8125 15.671875 -2.1875 C 14.234375 -0.5625 12.238281 0.25 9.6875 0.25 C 7.070312 0.25 5.054688 -0.546875 3.640625 -2.140625 C 2.222656 -3.742188 1.515625 -6 1.515625 -8.90625 C 1.515625 -11.789062 2.222656 -14.023438 3.640625 -15.609375 C 5.066406 -17.203125 7.085938 -18 9.703125 -18 C 12.253906 -18 14.242188 -17.191406 15.671875 -15.578125 C 17.109375 -13.960938 17.828125 -11.734375 17.828125 -8.890625 Z M 3.703125 -8.890625 C 3.703125 -6.484375 4.210938 -4.660156 5.234375 -3.421875 C 6.253906 -2.179688 7.738281 -1.5625 9.6875 -1.5625 C 11.644531 -1.5625 13.125 -2.179688 14.125 -3.421875 C 15.132812 -4.660156 15.640625 -6.484375 15.640625 -8.890625 C 15.640625 -11.273438 15.140625 -13.082031 14.140625 -14.3125 C 13.140625 -15.539062 11.660156 -16.15625 9.703125 -16.15625 C 7.742188 -16.15625 6.253906 -15.535156 5.234375 -14.296875 C 4.210938 -13.054688 3.703125 -11.253906 3.703125 -8.890625 Z M 3.703125 -8.890625 "/></g></g></g><g fill="#39623d" fill-opacity="1"><g transform="translate(250.528283, 244.435254)"><g><path d="M 4.5 0 L 2.4375 0 L 2.4375 -17.71875 L 12.3125 -17.71875 L 12.3125 -15.890625 L 4.5 -15.890625 L 4.5 -9.40625 L 11.84375 -9.40625 L 11.84375 -7.578125 L 4.5 -7.578125 Z M 4.5 0 "/></g></g></g><g fill="#39623d" fill-opacity="1"><g transform="translate(268.551948, 244.435254)"><g/></g></g><g fill="#39623d" fill-opacity="1"><g transform="translate(280.212996, 244.435254)"><g><path d="M 7.890625 0 L 5.828125 0 L 5.828125 -15.890625 L 0.21875 -15.890625 L 0.21875 -17.71875 L 13.5 -17.71875 L 13.5 -15.890625 L 7.890625 -15.890625 Z M 7.890625 0 "/></g></g></g><g fill="#39623d" fill-opacity="1"><g transform="translate(299.157728, 244.435254)"><g><path d="M 2.4375 0 L 2.4375 -17.71875 L 4.5 -17.71875 L 4.5 0 Z M 2.4375 0 "/></g></g></g><g fill="#39623d" fill-opacity="1"><g transform="translate(311.291417, 244.435254)"><g><path d="M 10.28125 0 L 4.265625 -15.71875 L 4.171875 -15.71875 C 4.285156 -14.46875 4.34375 -12.988281 4.34375 -11.28125 L 4.34375 0 L 2.4375 0 L 2.4375 -17.71875 L 5.546875 -17.71875 L 11.15625 -3.109375 L 11.25 -3.109375 L 16.90625 -17.71875 L 19.984375 -17.71875 L 19.984375 0 L 17.9375 0 L 17.9375 -11.421875 C 17.9375 -12.734375 17.988281 -14.15625 18.09375 -15.6875 L 18 -15.6875 L 11.9375 0 Z M 10.28125 0 "/></g></g></g><g fill="#39623d" fill-opacity="1"><g transform="translate(338.913562, 244.435254)"><g><path d="M 12.3125 0 L 2.4375 0 L 2.4375 -17.71875 L 12.3125 -17.71875 L 12.3125 -15.890625 L 4.5 -15.890625 L 4.5 -10.1875 L 11.84375 -10.1875 L 11.84375 -8.359375 L 4.5 -8.359375 L 4.5 -1.84375 L 12.3125 -1.84375 Z M 12.3125 0 "/></g></g></g></svg>
