<svg xmlns="http://www.w3.org/2000/svg" viewBox="0 0 375 375"><defs><clipPath id="446f35be68"><path d="M 71.765625 46.167969 L 179.621094 46.167969 L 179.621094 154.023438 L 71.765625 154.023438 Z M 71.765625 46.167969 " clip-rule="nonzero"/></clipPath><clipPath id="c14da11d3f"><path d="M 195.804688 37.5 L 303 37.5 L 303 100 L 195.804688 100 Z M 195.804688 37.5 " clip-rule="nonzero"/></clipPath><clipPath id="4de56ed21c"><path d="M 195.804688 229.644531 L 303.660156 229.644531 L 303.660156 337.5 L 195.804688 337.5 Z M 195.804688 229.644531 " clip-rule="nonzero"/></clipPath><clipPath id="b1b504f124"><path d="M 195.804688 116.066406 L 345 116.066406 L 345 213.675781 L 195.804688 213.675781 Z M 195.804688 116.066406 " clip-rule="nonzero"/></clipPath><clipPath id="c90e568ce6"><path d="M 29.492188 170.71875 L 179.621094 170.71875 L 179.621094 320.847656 L 29.492188 320.847656 Z M 29.492188 170.71875 " clip-rule="nonzero"/></clipPath></defs><g clip-path="url(#446f35be68)"><path fill="#652a63" d="M 71.765625 46.167969 L 179.621094 46.167969 L 179.621094 154.023438 L 71.765625 154.023438 Z M 71.765625 46.167969 " fill-opacity="1" fill-rule="nonzero"/></g><g clip-path="url(#c14da11d3f)"><path fill="#652a63" d="M 195.804688 37.5 L 302.4375 37.5 L 302.4375 99.234375 L 195.804688 99.234375 Z M 195.804688 37.5 " fill-opacity="1" fill-rule="nonzero"/></g><g clip-path="url(#4de56ed21c)"><path fill="#652a63" d="M 195.804688 229.644531 L 303.660156 229.644531 L 303.660156 337.5 L 195.804688 337.5 Z M 195.804688 229.644531 " fill-opacity="1" fill-rule="nonzero"/></g><g clip-path="url(#b1b504f124)"><path fill="#39623d" d="M 195.804688 116.066406 L 344.527344 116.066406 L 344.527344 214.277344 L 195.804688 214.277344 Z M 195.804688 116.066406 " fill-opacity="1" fill-rule="nonzero"/></g><g clip-path="url(#c90e568ce6)"><path fill="#39623d" d="M 29.492188 170.71875 L 179.621094 170.71875 L 179.621094 320.847656 L 29.492188 320.847656 Z M 29.492188 170.71875 " fill-opacity="1" fill-rule="nonzero"/></g></svg>
